# xmcd CD database file
#
# Track frame offsets:
#	150
#	10972
#	19787
#	41643
#	66706
#	94888
#	116824
#	138563
#
# Disc length: 2287 seconds
#
# Revision: 0
# Processed by: cddbd v1.5.1PL2 Copyright (c) Steve Scherf et al.
# Submitted via: CDex 1.51
#
DISCID=7408ed08
DTITLE=Easy Goin' - Demo
DYEAR=1900
DGENRE=Jazz
TTITLE0=Aqua Che Beber (Carlos Jobim)
TTITLE1=Swing For Branko (A. Ihring)
TTITLE2=Dindi (Carlos Jobim)
TTITLE3=Spain (Chick Corea)
TTITLE4=Les Feuilles Mortes
TTITLE5=Summertime (George Gershwin)
TTITLE6=Superstitious (Sevie Wonder)
TTITLE7=Easy Goin' (Ihring/Joel/Green)
EXTD=
EXTT0=
EXTT1=
EXTT2=
EXTT3=
EXTT4=
EXTT5=
EXTT6=
EXTT7=
PLAYORDER=
